<svg version="1.0" xmlns="http://www.w3.org/2000/svg" width="666.667" height="666.667" viewBox="0 0 500 500"><path d="M255.6 58.1c-3 2.4-9 11-12.6 18.2-2.8 5.6-3.3 5-4.5-5.1-.4-3.4-1.1-6.5-1.6-6.8-2.1-1.3-2.5.9-1.3 7.8 1.9 11 2.3 13.8 3 19.9.3 3.1 1 6.2 1.4 6.9 1.6 2.5 2.7-.1 2.4-5.7-.3-6.8 2-13.3 4.5-13.3 2.3 0 5.2 3.2 9.5 10.6 2.4 4.1 4.5 6.5 6.6 7.4 1.6.7 4.3 2.8 6 4.6l3 3.4-1.9 3.3c-2.8 5-2.2 11.4 1.4 14.2 5.3 4.3 15 3.7 16.9-1 .5-1.3 1.1-1.2 4.4 1 3.4 2.2 4.3 2.4 6.4 1.4 2.7-1.2 9.5-11.8 15-23.5 2.3-4.9 4.1-7.5 5.9-8.3 2.4-1.1 3-.9 5.7 1.9 5.3 5.3 12.2 2.8 12.2-4.4 0-4.2-2.1-6-7.1-5.9-4.5.1-4.7-.6-1.8-5.3 2.2-3.7 1.8-6.4-.8-4.3-2.2 1.9-5.3 8.5-5.3 11.4 0 1.4-.4 2.5-1 2.5-1.4 0-1.3-1.6.8-9 2.5-8.7 2.8-16.2.8-19.3-4.9-7.3-16-4.9-25.8 5.7-2.1 2.2-3.8 4.3-3.8 4.7 0 .4-.9.5-2 .2s-2-.1-2 .5-.4 2.2-1 3.7l-1 2.6-3.2-3.7c-5.2-5.9-10.5-8.7-16.5-8.8l-5.2-.1.1-3.4c.1-2.2-.5-3.8-1.7-4.7-2.4-1.8-2.8-1.8-5.9.7zm4.5 2.9c.4 3.9 0 5.1-2.9 7.8-2.6 2.4-3.2 3.8-3.2 7.1v4l-3.2-1.7c-1.8-.9-3.4-1.8-3.6-1.9-.6-.2 3.6-7.7 6.7-12.1 2.9-3.9 6-5.5 6.2-3.2zm73.8 27.9c1.7 1.1.6 4.7-1.6 5.5-2.2.9-5.8-2.7-5-4.8.7-1.7 4.3-2.1 6.6-.7zM281 114.2c5.6 4.9 5.9 5.3 4.3 7-2.9 3.2-9.9 1.8-12.8-2.6-1.4-2.2-1.5-2.8-.1-6 .8-2 1.8-3.6 2.1-3.6.4 0 3.3 2.3 6.5 5.2zM196.7 85.3l-1.9 3.2-2.4-3-2.4-3V85c0 3.2 1.7 5 4.6 5 2.3 0 6.4-4.2 6.4-6.6 0-2.5-2.5-1.4-4.3 1.9zM201.6 94.7c-.3 1-.6 4.4-.7 7.5-.2 4.2-.8 6.3-2.1 7.5-2.8 2.5-5 .6-6.8-6-1.7-6.3-3.6-9-4.5-6.5-.3.8.4 4.5 1.5 8.2 2.4 7.2 5.4 10.3 8.9 9.1 3.1-.9 6.1-5.4 6.1-8.9v-3.1l2.5 2.8c2.7 2.8 6.2 3.5 9.6 1.7 1-.6 1.9-1.8 1.9-2.6 0-1.5-1.1-1.4-5.5.3-1.9.7-4.8-2.3-6.4-6.7-1.8-4.7-3.6-6.1-4.5-3.3zM377.2 103.2c-4 1.4-12.7 8.9-14.8 12.9l-1.5 2.9-4.2-5.2c-6-7.4-11.7-9.8-18-7.6-11.3 4-5.8 19.8 14.3 41.1 6.7 7.1 10.2 9.2 13 7.7 2.7-1.4 14.1-18.9 19-29 4.9-10.4 6.1-17.5 3.4-20.8-2.3-2.7-6.7-3.5-11.2-2zM174.8 103.7c-.1.5-.2 4.9-.2 10-.1 10-1 11.9-4.9 10.9-1.8-.4-3.1-2.2-5.2-7.1-1.5-3.6-3.1-6.5-3.6-6.5-2 0-1.8 2.3.7 7.7 3.3 7.1 3.3 7.2 1.8 10.3-2.3 4.7-7.9 9.2-10.9 8.8-4-.4-6.9-4.8-6.9-10.4-.1-5.2 2.2-8 4.6-5.6 1.1 1.1.9 1.6-.7 2.8-1.7 1.2-1.8 1.6-.5 2.4 2.2 1.4 5-.7 5-3.8 0-3.4-1.6-5.2-4.8-5.2-8.9 0-10.4 11.6-2.8 21.3 4.2 5.3 13.9 1.9 17.9-6.4 2-4.3 2.4-4.6 5.3-4.2 2.5.4 3.5-.1 5.8-2.8 2.2-2.6 2.7-4 2.4-7.1-.2-2.1-.2-3.8 0-3.8s1.7 1.1 3.4 2.5c3.4 2.9 6.4 3.2 9.6.9 2.9-2 2.9-3.8 0-3-4.9 1.4-5.7 1.4-7.7-.5-1.1-1.1-3-4.2-4.2-6.9-1.9-4.5-3.6-6.2-4.1-4.3z"/><path d="M187.1 130.7c-5.4 11.2-8.1 31.1-6.1 46.1.6 4.8.4 5.6-2.5 10-9.5 14.1-14.3 29.4-13.2 41.7l.6 6.2-9.7 1.4c-9 1.3-31.8 1.5-65.2.7l-9.5-.3v234l8.5.1c12.5.1 34.8 1.5 40.5 2.5 2.8.4 16.3.5 30 .1 13.8-.3 27.3-.5 30-.4 11.3.4 91.5 1.5 111 1.4 25.6 0 77.6-1.5 96-2.7 2.8-.2 11.4-.4 19.3-.4l14.2-.1-.2-117.3-.3-117.2-5-.2c-10.3-.5-25.7-.5-47.3-.2l-22.3.4-1.1-4.4c-.6-2.4-2.4-5.8-3.9-7.6-1.6-1.8-3.1-5-3.5-7.1-1.3-8.1-5.5-19.2-10.3-26.9l-4.9-8 .3-13c.5-16.8-1.6-28.9-6.7-39.1l-2.3-4.6-4.6.5c-10.6 1.3-28.3 11-37 20.3l-4.6 5-4.9-1.3c-7.4-2-20.2-2.2-29-.5l-7.7 1.5-2.8-3c-7.7-8.7-21.4-17.3-32.8-20.7-9-2.6-10.4-2.3-13 3.1zM344 220.5c0 .3-.9 1.4-2 2.5s-2 1.8-2 1.6c0-.2-.3-1.1-.6-1.9-.3-1 .2-1.7 1.3-2 2.7-.7 3.3-.7 3.3-.2zm-22.7 11.6c-1.4 2.1-2.3 2.7-2.8 1.9-.4-.6.3-2.2 1.6-3.6 3-3.2 3.6-2.3 1.2 1.7zM128.4 138.1c-2.8.8-5.4 4.2-5.4 6.9 0 1.8 2.9 1 3.5-.9.8-2.6 3.8-3.5 6.5-2.1 2 1.1 2 1.2-1 4-3.9 3.6-3.9 8.7-.2 10.6 3.5 1.7 6.1.6 8.2-3.6 1.7-3.4 2.4-3.8 5.5-3.7 3.7.1 7.2-2.3 6.1-4.2-.5-.8-1.3-.8-2.6-.1-3.4 1.8-7 1.1-9.8-1.9-4.4-4.6-7.3-6-10.8-5zm9.6 11.3c0 2.8-2.4 5.1-4.4 4.3-1.7-.7-1.6-2.8.3-5.1 2-2.4 4.1-2 4.1.8zM100.1 144.4c-1.5 1.8-.8 3.3 5.4 12.1 8.5 12.1 11.3 19 9 22.1-1.7 2.4-6.5 1.1-6.5-1.7 0-2.4-2.3-2.1-2.8.4-.5 2.4 3.4 5.7 6.6 5.7 9.3 0 8.2-14.3-2.2-27.5-3.4-4.4-2.3-4 4.4 1.5 8.4 6.9 12.8 8.8 17 7.5 2.8-.9 1.3-3.5-2.1-3.5-2 0-6.2-2.6-14.7-9-6.5-5-12.1-9-12.4-9-.3 0-1.1.6-1.7 1.4z"/></svg>