<?xml version="1.0" standalone="no"?>
<!DOCTYPE svg PUBLIC "-//W3C//DTD SVG 20010904//EN"
 "http://www.w3.org/TR/2001/REC-SVG-20010904/DTD/svg10.dtd">
<svg version="1.0" xmlns="http://www.w3.org/2000/svg" width="500.000000pt" height="500.000000pt" viewBox="0 0 500.000000 500.000000" preserveAspectRatio="xMidYMid meet">
<metadata>
Created by potrace 1.14, written by Peter Selinger 2001-2017
</metadata>
<g transform="translate(0.000000,500.000000) scale(0.100000,-0.100000)" fill="#000000" stroke="none">
<path d="M2556 4419 c-30 -24 -90 -110 -126 -182 -28 -56 -33 -50 -45 51 -4
34 -11 65 -16 68 -21 13 -25 -9 -13 -78 19 -110 23 -138 30 -199 3 -31 10 -62
14 -69 16 -25 27 1 24 57 -3 68 20 133 45 133 23 0 52 -32 95 -106 24 -41 45
-65 66 -74 16 -7 43 -28 60 -46 l30 -34 -19 -33 c-28 -50 -22 -114 14 -142 53
-43 150 -37 169 10 5 13 11 12 44 -10 34 -22 43 -24 64 -14 27 12 95 118 150
235 23 49 41 75 59 83 24 11 30 9 57 -19 53 -53 122 -28 122 44 0 42 -21 60
-71 59 -45 -1 -47 6 -18 53 22 37 18 64 -8 43 -22 -19 -53 -85 -53 -114 0 -14
-4 -25 -10 -25 -14 0 -13 16 8 90 25 87 28 162 8 193 -49 73 -160 49 -258 -57
-21 -22 -38 -43 -38 -47 0 -4 -9 -5 -20 -2 -11 3 -20 1 -20 -5 0 -6 -4 -22
-10 -37 l-10 -26 -32 37 c-52 59 -105 87 -165 88 l-52 1 1 34 c1 22 -5 38 -17
47 -24 18 -28 18 -59 -7z m45 -29 c4 -39 0 -51 -29 -78 -26 -24 -32 -38 -32
-71 l0 -40 -32 17 c-18 9 -34 18 -36 19 -6 2 36 77 67 121 29 39 60 55 62 32z
m738 -279 c17 -11 6 -47 -16 -55 -22 -9 -58 27 -50 48 7 17 43 21 66 7z m-529
-253 c56 -49 59 -53 43 -70 -29 -32 -99 -18 -128 26 -14 22 -15 28 -1 60 8 20
18 36 21 36 4 0 33 -23 65 -52z"></path>
<path d="M1967 4147 l-19 -32 -24 30 -24 30 0 -25 c0 -32 17 -50 46 -50 23 0
64 42 64 66 0 25 -25 14 -43 -19z"></path>
<path d="M2016 4053 c-3 -10 -6 -44 -7 -75 -2 -42 -8 -63 -21 -75 -28 -25 -50
-6 -68 60 -17 63 -36 90 -45 65 -3 -8 4 -45 15 -82 24 -72 54 -103 89 -91 31
9 61 54 61 89 l0 31 25 -28 c27 -28 62 -35 96 -17 10 6 19 18 19 26 0 15 -11
14 -55 -3 -19 -7 -48 23 -64 67 -18 47 -36 61 -45 33z"></path>
<path d="M3772 3968 c-40 -14 -127 -89 -148 -129 l-15 -29 -42 52 c-60 74
-117 98 -180 76 -113 -40 -58 -198 143 -411 67 -71 102 -92 130 -77 27 14 141
189 190 290 49 104 61 175 34 208 -23 27 -67 35 -112 20z"></path>
<path d="M1748 3963 c-1 -5 -2 -49 -2 -100 -1 -100 -10 -119 -49 -109 -18 4
-31 22 -52 71 -15 36 -31 65 -36 65 -20 0 -18 -23 7 -77 33 -71 33 -72 18
-103 -23 -47 -79 -92 -109 -88 -40 4 -69 48 -69 104 -1 52 22 80 46 56 11 -11
9 -16 -7 -28 -17 -12 -18 -16 -5 -24 22 -14 50 7 50 38 0 34 -16 52 -48 52
-89 0 -104 -116 -28 -213 42 -53 139 -19 179 64 20 43 24 46 53 42 25 -4 35 1
58 28 22 26 27 40 24 71 -2 21 -2 38 0 38 2 0 17 -11 34 -25 34 -29 64 -32 96
-9 29 20 29 38 0 30 -49 -14 -57 -14 -77 5 -11 11 -30 42 -42 69 -19 45 -36
62 -41 43z"></path>
<path d="M1871 3693 c-54 -112 -81 -311 -61 -461 6 -48 4 -56 -25 -100 -95
-141 -143 -294 -132 -417 l6 -62 -97 -14 c-90 -13 -318 -15 -652 -7 l-95 3 0
-1170 0 -1170 85 -1 c125 -1 348 -15 405 -25 28 -4 163 -5 300 -1 138 3 273 5
300 4 113 -4 915 -15 1110 -14 256 0 776 15 960 27 28 2 114 4 193 4 l142 1
-2 1173 -3 1172 -50 2 c-103 5 -257 5 -473 2 l-223 -4 -11 44 c-6 24 -24 58
-39 76 -16 18 -31 50 -35 71 -13 81 -55 192 -103 269 l-49 80 3 130 c5 168
-16 289 -67 391 l-23 46 -46 -5 c-106 -13 -283 -110 -370 -203 l-46 -50 -49
13 c-74 20 -202 22 -290 5 l-77 -15 -28 30 c-77 87 -214 173 -328 207 -90 26
-104 23 -130 -31z m1569 -898 c0 -3 -9 -14 -20 -25 -11 -11 -20 -18 -20 -16 0
2 -3 11 -6 19 -3 10 2 17 13 20 27 7 33 7 33 2z m-227 -116 c-14 -21 -23 -27
-28 -19 -4 6 3 22 16 36 30 32 36 23 12 -17z"></path>
<path d="M1284 3619 c-28 -8 -54 -42 -54 -69 0 -18 29 -10 35 9 8 26 38 35 65
21 20 -11 20 -12 -10 -40 -39 -36 -39 -87 -2 -106 35 -17 61 -6 82 36 17 34
24 38 55 37 37 -1 72 23 61 42 -5 8 -13 8 -26 1 -34 -18 -70 -11 -98 19 -44
46 -73 60 -108 50z m96 -113 c0 -28 -24 -51 -44 -43 -17 7 -16 28 3 51 20 24
41 20 41 -8z"></path>
<path d="M1001 3556 c-15 -18 -8 -33 54 -121 85 -121 113 -190 90 -221 -17
-24 -65 -11 -65 17 0 24 -23 21 -28 -4 -5 -24 34 -57 66 -57 93 0 82 143 -22
275 -34 44 -23 40 44 -15 84 -69 128 -88 170 -75 28 9 13 35 -21 35 -20 0 -62
26 -147 90 -65 50 -121 90 -124 90 -3 0 -11 -6 -17 -14z"></path>
</g>
</svg>
