<!-- Generated by IcoMoon.io -->
<svg version="1.1" xmlns="http://www.w3.org/2000/svg" width="32" height="32" viewBox="0 0 32 32">
<title>circle-outline</title>
<path d="M27.295 4.705c-1.466-1.466-3.174-2.618-5.077-3.422-1.971-0.834-4.063-1.256-6.218-1.256s-4.247 0.423-6.218 1.256c-1.902 0.805-3.61 1.956-5.077 3.422s-2.618 3.174-3.422 5.077c-0.834 1.971-1.256 4.063-1.256 6.218s0.423 4.247 1.256 6.218c0.805 1.902 1.956 3.61 3.422 5.077s3.174 2.618 5.077 3.422c1.971 0.834 4.063 1.256 6.218 1.256s4.247-0.423 6.218-1.256c1.902-0.805 3.61-1.956 5.077-3.422s2.618-3.174 3.422-5.077c0.834-1.971 1.256-4.063 1.256-6.218s-0.423-4.247-1.256-6.218c-0.805-1.902-1.956-3.61-3.422-5.076zM16 29.669c-7.549 0-13.669-6.12-13.669-13.669s6.12-13.669 13.669-13.669c7.549 0 13.669 6.12 13.669 13.669s-6.12 13.669-13.669 13.669z"></path>
<path d="M16 32c-2.159 0-4.255-0.423-6.229-1.258-1.906-0.806-3.616-1.959-5.085-3.428s-2.622-3.18-3.428-5.085c-0.835-1.974-1.258-4.070-1.258-6.229s0.423-4.255 1.258-6.229c0.806-1.906 1.959-3.616 3.428-5.085s3.179-2.622 5.085-3.428c1.974-0.835 4.070-1.258 6.229-1.258s4.255 0.423 6.229 1.258c1.906 0.806 3.617 1.959 5.085 3.428s2.622 3.18 3.428 5.085c0.835 1.974 1.258 4.070 1.258 6.229s-0.423 4.255-1.258 6.229c-0.806 1.906-1.959 3.616-3.428 5.085s-3.18 2.622-5.085 3.428c-1.974 0.835-4.070 1.258-6.229 1.258zM16 0.054c-2.152 0-4.24 0.422-6.208 1.254-1.899 0.803-3.604 1.953-5.068 3.417s-2.613 3.169-3.417 5.068c-0.832 1.967-1.254 4.056-1.254 6.208s0.422 4.24 1.254 6.208c0.803 1.899 1.953 3.604 3.417 5.068s3.169 2.613 5.068 3.416c1.967 0.832 4.056 1.254 6.208 1.254s4.24-0.422 6.208-1.254c1.899-0.803 3.604-1.953 5.068-3.416s2.613-3.169 3.416-5.068c0.832-1.967 1.254-4.056 1.254-6.208s-0.422-4.24-1.254-6.208c-0.803-1.899-1.953-3.604-3.416-5.068s-3.169-2.613-5.068-3.417c-1.967-0.832-4.056-1.254-6.208-1.254zM16 29.696c-3.658 0-7.098-1.425-9.685-4.012s-4.011-6.026-4.011-9.685c0-3.658 1.425-7.098 4.011-9.685s6.026-4.011 9.685-4.011c3.658 0 7.098 1.425 9.685 4.011s4.012 6.026 4.012 9.685c0 3.658-1.425 7.098-4.012 9.685s-6.026 4.012-9.685 4.012zM16 2.358c-3.644 0-7.070 1.419-9.647 3.996s-3.996 6.003-3.996 9.647 1.419 7.070 3.996 9.647c2.577 2.577 6.003 3.996 9.647 3.996s7.070-1.419 9.647-3.996 3.996-6.003 3.996-9.647-1.419-7.070-3.996-9.647c-2.577-2.577-6.003-3.996-9.647-3.996z"></path>
</svg>
